<?xml version="1.0" encoding="utf-8"?>
<svg xmlns="http://www.w3.org/2000/svg" viewBox="-0.0001 14.364 500 486.677" width="500px" height="486.677px"><g transform="matrix(0.10000000149011613, 0, 0, -0.10000000149011613, 55.474918365478544, 286.0339660644532)" fill="#000000" stroke="none" id="object-0"><title>AirHive</title><rect y="-2716.7" width="5000" height="4866.77" style="fill: rgb(47, 45, 45);" transform="matrix(1, 0, 0, -1, 0, 0)" x="-554.75"><title>Fondo</title></rect><g transform="matrix(1, 0, 0, 1, -476.619171, -637.446655)" fill="#000000" stroke="none"><path d="M277 986 c-114 -168 -207 -307 -207 -310 0 -3 53 -6 118 -6 l118 0 135 200 c73 109 137 199 140 200 3 0 35 -89 70 -197 l65 -198 107 -3 c59 -1 107 0 107 4 0 9 -190 596 -196 606 -3 4 -60 8 -128 8 l-123 0 -206 -304z" style="fill: rgb(166, 2, 2);"><title>A</title></path><path d="M979 865 l-35 -196 105 3 105 3 33 175 c18 96 32 183 33 193 0 15 -11 17 -103 17 l-103 0 -35 -195z" style="fill: rgb(166, 2, 2);"><title>I</title></path><path d="M1039 1200 l-16 -90 359 0 359 0 -3 -22 -3 -23 -232 -3 c-128 -1 -233 -6 -233 -11 0 -9 -57 -319 -65 -358 -5 -23 -4 -23 99 -23 119 0 106 -13 127 128 l12 82 62 0 62 0 45 -102 45 -103 107 -3 c58 -1 106 1 106 5 0 5 -20 55 -45 111 -25 56 -45 104 -45 106 0 3 14 8 31 11 44 10 112 81 128 134 18 62 17 145 -3 176 -44 66 -103 75 -536 75 l-346 0 -15 -90z" style="fill: rgb(166, 2, 2);"><title>R</title></path><path d="M2206 1278 c-6 -20 -106 -582 -106 -596 0 -9 28 -12 103 -12 l103 0 18 110 18 110 184 0 c212 0 193 14 169 -120 -8 -47 -15 -88 -15 -92 0 -5 46 -8 103 -8 l103 0 39 220 40 220 127 0 c124 0 128 1 132 23 16 73 26 130 26 143 0 12 -33 14 -232 12 l-232 -3 -13 -75 c-7 -41 -15 -90 -18 -107 l-6 -33 -184 0 c-141 0 -185 3 -185 13 0 6 7 50 15 97 8 47 15 91 15 98 0 9 -27 12 -100 12 -72 0 -102 -4 -104 -12z" style="fill: rgb(166, 2, 2);"><title>H</title></path><path d="M2969 865 l-35 -196 105 3 105 3 33 180 c17 99 32 186 32 193 1 9 -26 12 -102 12 l-103 0 -35 -195z" style="fill: rgb(166, 2, 2);"><title>I</title></path><path d="M3270 1279 c0 -10 82 -273 167 -532 l25 -78 131 3 132 3 207 305 c114 168 207 306 208 308 0 1 -58 2 -129 2 l-130 0 -127 -187 c-70 -104 -130 -192 -134 -196 -6 -7 -67 167 -117 336 l-14 47 -109 0 c-75 0 -110 -4 -110 -11z" style="fill: rgb(166, 2, 2);"><title>V</title></path><path d="M4187 1258 c-13 -18 -41 -58 -61 -88 l-36 -55 242 -3 c133 -1 245 1 249 5 4 5 13 45 22 91 l14 82 -203 0 -203 0 -24 -32z" style="fill: rgb(166, 2, 2);"><title>E</title></path><path d="M4000 985 c-27 -41 -50 -77 -50 -80 0 -3 135 -5 300 -5 165 0 300 3 300 8 0 4 6 40 14 80 l14 72 -264 0 -263 0 -51 -75z" style="fill: rgb(166, 2, 2);"><title>E</title></path><path d="M3865 788 c-22 -33 -48 -74 -58 -89 l-19 -29 359 0 360 0 12 73 c7 39 15 80 17 90 5 16 -15 17 -313 17 l-318 0 -40 -62z" style="fill: rgb(166, 2, 2);"><title>E</title></path></g></g></svg>